/* XPM */
static char *result[] = {
/* columns rows colors chars-per-pixel */
"32 32 12 1 ",
"  c #5C1E1C",
". c #750D10",
"X c #A32121",
"o c #C23232",
"O c #AD7044",
"+ c #E66655",
"@ c #428F42",
"# c #6EA84A",
"$ c #A6C651",
"% c #BDDD60",
"& c #D3DE6E",
"* c #F1F4F7",
/* pixels */
"$$$$$$$$$$$$%%%%$$$$$$$$$$$$$$&&",
"$$$$$$$$$$$$%%%%$$$$$$$$$$$$$$&&",
"%%$$$$$$$$$$&&&&$$$$OO$$$$$$$$$$",
"%%$$$$$$$$$$&&&&$$$$OO$$$$$$$$$$",
"$$$$$$%%$$$$$$$$$$  $$$$$$$$$$$$",
"$$$$$$%%$$$$$$$$$$  $$$$$$$$$$$$",
"%%$$&&$$$$$$$$&&  %%$$$$$$$$%%&&",
"%%$$&&$$$$$$$$&&  %%$$$$$$$$%%&&",
"$$$$$$........    ........$$&&$$",
"$$$$$$........    ........$$&&$$",
"$$$$....XXXX..........XX....$$&&",
"$$$$....XXXX..........XX....$$&&",
"$$$$..XXoo++ooXXXXXX..XXXX..$$$$",
"$$$$..XXoo++ooXXXXXX..XXXX..$$$$",
"$$$$..XX++**++XXXXXXXXXXXX..$$$$",
"$$$$..XX++**++XXXXXXXXXXXX..$$$$",
"$$&&..XXoo++ooXXXXXXXXXXoo..%%$$",
"$$&&..XXoo++ooXXXXXXXXXXoo..%%$$",
"$$$$....XXXXXXXXXXXXXXXX....$$$$",
"$$$$....XXXXXXXXXXXXXXXX....$$$$",
"$$$$&&..XXXXXXXXXXXXXXoo..$$$$$$",
"$$$$&&..XXXXXXXXXXXXXXoo..$$$$$$",
"$$$$$$....XXXXXXXXXXoo....$$$$$$",
"$$$$$$....XXXXXXXXXXoo....$$$$$$",
"$$$$$$$$....ooXXoooo....$$%%$$$$",
"$$$$$$$$....ooXXoooo....$$%%$$$$",
"%%$$$$####............@@##$$%%$$",
"%%$$$$####............@@##$$%%$$",
"$$$$$$$$$$##@@@@@@@@##$$$$$$$$$$",
"$$$$$$$$$$##@@@@@@@@##$$$$$$$$$$",
"$$$$$$$$$$%%$$$$$$$$$$$$$$$$$$$$",
"$$$$$$$$$$%%$$$$$$$$$$$$$$$$$$$$"
};
