/* XPM */
static char *_069910309dd4e3194172e72f1098ba7e9mmZzxcf18iHCnJ[] = {
/* columns rows colors chars-per-pixel */
"32 32 10 1 ",
"  c #0D171F",
". c #5C1E1C",
"X c #78362A",
"o c #317545",
"O c #428F42",
"+ c #A6C651",
"@ c #BDDD60",
"# c #F5CB53",
"$ c #D3DE6E",
"% c #FFEA63",
/* pixels */
"++++++++++++@@@@++++++++++++++$$",
"++++++++++++@@@@++++++++++++++$$",
"@@++++++++++$$$$++++$$++++++++++",
"@@++++++++++$$$$++++$$++++++++++",
"++++++      ..........    ++++++",
"++++++      ..........    ++++++",
"@@++$$  ######XX..######  ++@@$$",
"@@++$$  ######XX..######  ++@@$$",
"++++++  ##%%##XX..##%%##  ++$$++",
"++++++  ##%%##XX..##%%##  ++$$++",
"++++++  ##%%##XX..##%%##  ++++$$",
"++++++  ##%%##XX..##%%##  ++++$$",
"++++++  ######XX..######  ++++++",
"++++++  ######XX..######  ++++++",
"++++$$..XXXXXXXX..XXXXXX  ++++++",
"++++$$..XXXXXXXX..XXXXXX  ++++++",
"++$$++..XXXXXX  ..XXXXXX  ++@@++",
"++$$++..XXXXXX  ..XXXXXX  ++@@++",
"++++++..XXXXXXXX..XXXXXX  ++++++",
"++++++..XXXXXXXX..XXXXXX  ++++++",
"++++$$..XXXXXXXX..XXXXXX  ++++++",
"++++$$..XXXXXXXX..XXXXXX  ++++++",
"++++++..XX..XXXX..XXXXXX  ++++++",
"++++++..XX..XXXX..XXXXXX  ++++++",
"++++OO..XXXXXXXX..XXXXXX..OO++++",
"++++OO..XXXXXXXX..XXXXXX..OO++++",
"@@OOOO....................ooOO++",
"@@OOOO....................ooOO++",
"++++++OOooooooooooooooOOOO++++++",
"++++++OOooooooooooooooOOOO++++++",
"++++++++++@@++++++++++++++++++++",
"++++++++++@@++++++++++++++++++++"
};
