/* XPM */
static char *_acee34c0b0f4e96f9da7277c70a572coKKdaIKJEbXSbykX[] = {
/* columns rows colors chars-per-pixel */
"32 32 3 1 ",
"  c #A6C651",
". c #BDDD60",
"X c #D3DE6E",
/* pixels */
"            ....              XX",
"            ....              XX",
"..          XXXX    XX          ",
"..          XXXX    XX          ",
"      ..                        ",
"      ..                        ",
"..  XX        XX  ..        ..XX",
"..  XX        XX  ..        ..XX",
"      ..        ..          XX  ",
"      ..        ..          XX  ",
"      ..  ..        ..XX      XX",
"      ..  ..        ..XX      XX",
"      ..XX....                  ",
"      ..XX....                  ",
"    XX  ......                  ",
"    XX  ......                  ",
"  XX      XX    XX          ..  ",
"  XX      XX    XX          ..  ",
"                                ",
"                                ",
"    XX              XX  XX      ",
"    XX              XX  XX      ",
"      ..        ..XX            ",
"      ..        ..XX            ",
"              XX....      ..    ",
"              XX....      ..    ",
"..                    ..    ..  ",
"..                    ..    ..  ",
"          XX..                  ",
"          XX..                  ",
"          ..                    ",
"          ..                    "
};
