/* XPM */
static char *_018997c54ea4786af41f1ed6de8b534jKam1yKtFoLzrkWh[] = {
/* columns rows colors chars-per-pixel */
"32 32 14 1 ",
"  c #0D171F",
". c #0D2829",
"X c #5C1E1C",
"o c #78362A",
"O c #317545",
"+ c #428F42",
"@ c #6EA84A",
"# c #E0AB72",
"$ c #A6C651",
"% c #A3C255",
"& c #BDDD60",
"* c #D3DE6E",
"= c #CFDB72",
"- c #EBC48A",
/* pixels */
"$$$$$$$$$$$$&&&&$$$$$$$$$$$$$$**",
"$$$$$$$$$$$$&&&&$$$$$$$$$$$$$$**",
"&&$$$$$$$$        $$**$$$$$$$$$$",
"&&$$$$$$$$        $$**$$$$$$$$$$",
"$$$$$$&&    %%%%..    $$$$$$$$$$",
"$$$$$$&&    %%%%..    $$$$$$$$$$",
"&&$$**..OOOO%%==%%@@OO  ..$$&&**",
"&&$$**..OOOO%%==%%@@OO  ..$$&&**",
"$$$$....OO%%%%%%%%@@@@OO..  **$$",
"$$$$....OO%%%%%%%%@@@@OO..  **$$",
"$$  ..OO====%%%%%%%%@@%%%%@@  **",
"$$  ..OO====%%%%%%%%@@%%%%@@  **",
"$$  @@@@%%==%%==%%@@@@%%==@@  $$",
"$$  @@@@%%==%%==%%@@@@%%==@@  $$",
"$$    OO%%%%%%%%@@%%@@OO@@@@  $$",
"$$    OO%%%%%%%%@@%%@@OO@@@@  $$",
"$$**  OO@@@@==@@%%==@@OO%%  &&$$",
"$$**  OO@@@@==@@%%==@@OO%%  &&$$",
"$$$$  ..  @@OO@@@@@@      $$$$$$",
"$$$$  ..  @@OO@@@@@@      $$$$$$",
"$$$$**$$$$XXOOOO##XX**$$**$$$$$$",
"$$$$**$$$$XXOOOO##XX**$$**$$$$$$",
"$$$$$$&&$$$$oo--##XX$$$$$$$$$$$$",
"$$$$$$&&$$$$oo--##XX$$$$$$$$$$$$",
"$$$$$$$$$$$$XX--##XX$$$$$$&&$$$$",
"$$$$$$$$$$$$XX--##XX$$$$$$&&$$$$",
"&&$$$$$$$$@@XX####oo@@&&$$$$&&$$",
"&&$$$$$$$$@@XX####oo@@&&$$$$&&$$",
"$$$$$$@@@@XX######XXXX++@@$$$$$$",
"$$$$$$@@@@XX######XXXX++@@$$$$$$",
"$$$$$$$$$$@@@@++++++@@@@$$$$$$$$",
"$$$$$$$$$$@@@@++++++@@@@$$$$$$$$"
};
